<svg xmlns="http://www.w3.org/2000/svg" id="master-artboard" viewBox="0 0 1354.626220703125 347.03704833984375" x="0px" y="0px" style="enable-background:new 0 0 1400 980;" width="1354.626220703125px" height="347.03704833984375px"><rect id="ee-background" x="0" y="0" width="1354.626220703125" height="347.03704833984375" style="fill: white; fill-opacity: 0; pointer-events: none;"></rect><g transform="matrix(0.9837312698364258, 0, 0, 0.9837312698364258, 2.373128890991211, -304.9531478881836)"><path fill="#f68e34" d="M327 368c33 1 73 7 90 40 20 38 1 80-24 110 6-31 18-65 3-96-13-28-44-38-69-54z"></path><g fill="#373435"><path d="M94 452c45-50 112-71 177-76-35 16-46 53-56 88l18 3c-18 46-36 91-52 138-39-5-84-14-106-50-21-34-6-77 19-103zM338 390c35 17 65 53 52 93-16 57-72 91-125 109 22-68 52-133 73-202z"></path></g><path fill="#f68e35" d="M33 572c-18-37 1-79 30-104-6 29-20 60-9 89 12 28 43 39 67 54-32-4-71-8-88-39z"></path><g><path fill="#f3881e" d="M957 407c17-2 35-1 51 5a59 59 0 0134 35c6 18 3 39-4 56a115 115 0 01-31 44 112 112 0 01-110 19c-12-6-22-15-28-26a67 67 0 01-5-41c1-9 4-18 8-27 1-2 1-4 3-4l55-24h-41a106 106 0 0168-37m4 33c-12 1-24 8-33 17a86 86 0 00-20 35c-2 8-4 16-2 25a30 30 0 0022 21c16 4 33-1 46-12 8-7 15-15 20-25 5-11 9-24 7-37a28 28 0 00-14-20c-8-5-17-5-26-4zm162 13c10-4 21-5 31-4a33 33 0 0123 13c6 8 6 18 3 27-4 17-10 33-15 49l-11 32h-41l25-79c1-4 3-8 0-11-4-4-10-3-14-2a44 44 0 00-29 24 353 353 0 00-11 33c-5 11-8 23-12 35h-42l2-7 29-88 8-24h40l-3 10 17-8zm115 0c13-4 27-5 41-3a45 45 0 0131 18c6 10 8 21 7 33-1 7-2 15-6 22h-86c-1 8 4 17 12 20 10 3 21 0 29-8l6-7 37 6a73 73 0 01-66 38c-12 1-24-2-35-8a46 46 0 01-21-27c-3-10-2-20 0-29a75 75 0 0151-55m-6 45h47c0-5 0-11-3-15a17 17 0 00-14-6c-13-1-26 9-30 21z"></path><path fill="#221f1f" d="M508 409h36c1 0 3-1 3 1l34 88 2 7 31-95 3-1h39l-53 161h-39l-33-90-3-7-29 88-3 9h-40l5-18 47-143zm321 14l28-14-12 37-2 5h52l-6 3-53 25-3 2-18 56v3c0 2 3 2 4 2 7 1 13-1 19-1-2 10-6 20-9 29-9 2-19 3-29 2-9-1-18-3-24-10s-5-16-3-24l18-57h-16l9-29 17-1c2-5 3-11 6-16 7-5 14-8 22-12zm-127 27c15-2 31-2 45 6a40 40 0 0118 22 57 57 0 012 23 74 74 0 01-5 22h-86a18 18 0 005 15c4 5 10 6 15 6a28 28 0 0020-9l6-7 37 6a73 73 0 01-37 33 78 78 0 01-32 5c-14 0-28-4-38-13a45 45 0 01-16-32c-1-18 5-37 17-51a76 76 0 0149-26m-19 48h46c0-6 0-12-5-16-4-5-11-5-16-5a31 31 0 00-25 21z"></path></g></g></svg>